# xmcd
#
# Track frame offsets: 
#        182
#        12395
#        27557
#        39700
#        53982
#        75760
#        89397
#        107537
#        123297
#        140402
#        152907
#        165810
#        180265
#        197385
#
# Disc length: 2883 seconds
#
# Revision: 10
# Processed by: cddbd v1.5.2PL0 Copyright (c) Steve Scherf et al.
# Submitted via: ExactAudioCopy v1.1
#
DISCID=9f0b410e
DTITLE=Taj Mahal - Phantom Blues
DYEAR=1996
DGENRE=Blues
TTITLE0=Lovin' In My Baby's Eyes
TTITLE1=Cheatin' On You
TTITLE2=The Hustle Is On
TTITLE3=Here In The Dark
TTITLE4=Fanning The Flames
TTITLE5=I Need Your Loving
TTITLE6=Ooh Poo Pah Doo
TTITLE7=Lonely Avenue
TTITLE8=Don't Tell Me
TTITLE9=What Am I Living For
TTITLE10=We're Gonna Make It
TTITLE11=Let The Four Winds Blow
TTITLE12=(You've Got To) Love Her With A Feeling
TTITLE13=The Car Of Your Dreams
EXTD=
EXTT0=
EXTT1=
EXTT2=
EXTT3=
EXTT4=
EXTT5=
EXTT6=
EXTT7=
EXTT8=
EXTT9=
EXTT10=
EXTT11=
EXTT12=
EXTT13=
PLAYORDER=
